<svg xmlns="http://www.w3.org/2000/svg" xmlns:xlink="http://www.w3.org/1999/xlink" width="882.5" height="686.51" data-name="Layer 1"><defs><linearGradient id="c" x1="-121.09" x2="-121.09" y1="464.11" y2="77.38" gradientTransform="translate(704.36 124.53)" gradientUnits="userSpaceOnUse"><stop offset="0" stop-color="gray" stop-opacity=".25"/><stop offset=".54" stop-color="gray" stop-opacity=".12"/><stop offset="1" stop-color="gray" stop-opacity=".1"/></linearGradient><linearGradient id="a" x1="-402.3" x2="-402.3" y1="269.44" y2="170.67" gradientTransform="rotate(-15.27 695.5903 -2294.214)" gradientUnits="userSpaceOnUse"><stop offset="0" stop-opacity=".12"/><stop offset=".55" stop-opacity=".09"/><stop offset="1" stop-opacity=".02"/></linearGradient><linearGradient id="d" x1="-402.3" x2="-402.3" y1="252.79" y2="231.21" gradientTransform="translate(706.72 199.61)" xlink:href="#a"/><linearGradient id="e" x1="-402.26" x2="-402.26" y1="234.11" y2="194.99" gradientTransform="translate(699.49 200.57)" xlink:href="#a"/><linearGradient id="f" x1="-402.3" x2="-402.3" y1="272.44" y2="239.1" xlink:href="#a"/><linearGradient id="g" x1="-402.26" x2="-402.26" y1="216.85" y2="180.15" xlink:href="#a"/><linearGradient id="b" x1="-261.96" x2="-229.82" y1="207" y2="207" gradientTransform="translate(691.98 159.65)" gradientUnits="userSpaceOnUse"><stop offset="0" stop-opacity=".09"/><stop offset=".55" stop-opacity=".07"/><stop offset="1" stop-opacity=".02"/></linearGradient><linearGradient id="h" x1="-91.63" x2="-59.49" y1="207" y2="207" gradientTransform="translate(685.97 114.79)" xlink:href="#b"/><linearGradient id="i" x1="84.06" x2="116.2" y1="207" y2="207" gradientTransform="translate(679.76 68.52)" xlink:href="#b"/><linearGradient id="j" x1="-261.96" x2="-229.82" y1="370.91" y2="370.91" gradientTransform="translate(735.15 153.86)" xlink:href="#b"/><linearGradient id="k" x1="-91.63" x2="-59.49" y1="370.91" y2="370.91" gradientTransform="translate(729.13 109)" xlink:href="#b"/><linearGradient id="l" x1="84.06" x2="116.2" y1="370.91" y2="370.91" gradientTransform="translate(722.93 62.73)" xlink:href="#b"/><linearGradient id="m" x1="495.23" x2="495.23" y1="686.51" y2="299.78" xlink:href="#c"/><linearGradient id="n" x1="372.77" x2="372.77" y1="598.59" y2="499.81" xlink:href="#a"/><linearGradient id="o" x1="214.02" x2="214.02" y1="475.19" y2="453.62" xlink:href="#a"/><linearGradient id="p" x1="214.05" x2="214.05" y1="456.51" y2="417.4" xlink:href="#a"/><linearGradient id="q" x1="372.77" x2="372.77" y1="601.58" y2="568.25" xlink:href="#a"/><linearGradient id="r" x1="372.81" x2="372.81" y1="545.99" y2="509.29" xlink:href="#a"/></defs><path fill="#f5f5f5" d="M5.2574 203.0455L743.1529 1.5953l99.4188 364.1629L104.676 567.2083z"/><path fill="url(#c)" d="M196.01 201.91h774.54v386.73H196.01z" transform="rotate(-15.27 105.7625 934.0312)"/><path fill="#fff" d="M15.2864 239.7902L753.182 38.34l89.3212 327.1765-737.8955 201.4501z"/><circle cx="186.41" cy="322.7" r="9.64" fill="#ff5252" transform="matrix(.96 -.26 .26 .96 -237.16 -46.26)"/><circle cx="214.31" cy="315.08" r="9.64" fill="#ff0" transform="rotate(-15.27 -263.2242 853.851)"/><circle cx="242.22" cy="307.46" r="9.64" fill="#69f0ae" transform="rotate(-15.27 -235.3212 846.2384)"/><path fill="#ff4800" d="M15.1636 239.354l194.2897-53.0423 89.4398 327.6106-194.2897 53.0423z"/><path fill="url(#a)" d="M350.71 407.77c-7.4-27.11-36.54-42.77-65.07-35S240 408.88 247.36 436c5.81 21.28 25 35.5 46.79 36.87l-3.45-12.65c-2.5-9.14 3.34-18.77 13-21.4 9.62-2.63 19.54 2.7 22 11.85l3.45 12.65c18.06-12.27 27.37-34.32 21.56-55.55z" transform="translate(-158.75 -106.74)"/><rect width="6.44" height="21.58" x="301.2" y="430.82" fill="url(#d)" rx="2.86" ry="2.86" transform="rotate(-15.27 -173.1098 980.3714)"/><ellipse cx="297.22" cy="415.12" fill="url(#e)" rx="20.59" ry="19.56" transform="rotate(-15.27 -180.3055 953.8912)"/><path fill="url(#f)" d="M303.66 438.81c-9.62 2.63-15.45 12.26-13 21.4l3.45 12.65a56.43 56.43 0 0035-9.55l-3.45-12.65c-2.46-9.14-12.38-14.47-22-11.85z" transform="translate(-158.75 -106.74)"/><path fill="url(#g)" d="M276.91 419.54a18.18 18.18 0 01-4.71-8.91 12.92 12.92 0 012.05-9.81c2.25-3.13 6-5 9.66-6.35s7.6-2.2 11.14-3.91a24.69 24.69 0 0012.5-13.91 29.89 29.89 0 012.18 8.33 10.56 10.56 0 01-2.65 8.1c2.65-2.15 3.18 1 3 3.09 2 1.31 5.67.6 6.46 2.77a13.8 13.8 0 011 6.76c-.35 2.29 1.61 5.64-.68 6.43" transform="translate(-158.75 -106.74)"/><path fill="#ff4800" d="M187.36 294.51a50.89 50.89 0 10-53.11 64.15l-3.45-12.65a17.28 17.28 0 0112.08-21.16 17.28 17.28 0 0121.16 12.08l3.45 12.65a50.9 50.9 0 0019.87-55.07z"/><rect width="6.12" height="21.58" x="299.35" y="423.6" fill="#fff" stroke="#fff" stroke-miterlimit="10" rx="2.86" ry="2.86" transform="rotate(-15.27 -175.1041 973.1556)"/><circle cx="295.21" cy="407.9" r="19.56" fill="#fff" stroke="#fff" stroke-miterlimit="10" transform="rotate(-15.27 -182.2999 946.6754)"/><path fill="#fff" stroke="#fff" stroke-miterlimit="10" d="M142.89 324.85h0a17.28 17.28 0 00-12.08 21.16l3.44 12.65a51.08 51.08 0 0033.24-9.08l-3.45-12.65a17.28 17.28 0 00-21.15-12.08zM117.14 305.26a19 19 0 01-4.6-8.94 13.16 13.16 0 011.83-9.75c2.11-3.09 5.61-4.94 9.13-6.21s7.22-2.09 10.57-3.76a23.39 23.39 0 0011.74-13.71 31.45 31.45 0 012.19 8.33 10.61 10.61 0 01-2.43 8c2.5-2.11 3 1.08 2.93 3.12 1.89 1.33 5.42.67 6.2 2.84a14.47 14.47 0 011.07 6.75c-.31 2.28 1.61 5.64-.57 6.4"/><path fill="#fff" d="M146.49 278.57s13.48-2.45 9.44 19.65"/><path d="M59.374 403.2938l194.2896-53.0423 44.5777 163.2843-194.2897 53.0423z" opacity=".1"/><path fill="#fff" d="M106.1702 428.2876l95.0804-25.9575 2.5388 9.2996-95.0803 25.9576zM112.0943 449.9898l117.8183-32.1652 2.5388 9.2997-117.8182 32.1651z"/><path fill="#f5f5f5" d="M248.047 197.3462l140.5464-38.3701 18.9045 69.2458-140.5464 38.37z"/><path fill="#e0e0e0" d="M266.3898 264.5146l140.5465-38.3701 18.9046 69.2458-140.5465 38.3701z"/><path fill="#f5f5f5" d="M581.8612 106.2186l140.5465-38.37 18.9045 69.2458-140.5465 38.37z"/><path fill="#e0e0e0" d="M600.1941 173.387l140.5465-38.37 18.9045 69.2458-140.5464 38.37z"/><path fill="#f5f5f5" d="M414.4378 151.9182l140.5465-38.37 18.9045 69.2458-140.5465 38.37z"/><path fill="#e0e0e0" d="M432.7737 219.099l140.5465-38.3701 18.9045 69.2458-140.5464 38.37zM287.3048 353.8956l139.8624-37.8794L445.83 384.925l-139.8624 37.8794z"/><path fill="#bdbdbd" d="M309.2685 421.6054l140.5464-38.3701 18.9046 69.2458-140.5465 38.3701z"/><path fill="#f5f5f5" d="M624.7372 263.2997l140.5464-38.37 18.9046 69.2458-140.5465 38.37z"/><path fill="#bdbdbd" d="M643.0827 330.4778l140.5465-38.37 18.9046 69.2458-140.5465 38.37z"/><path fill="#f5f5f5" d="M457.3164 309.009l140.5465-38.37 18.9045 69.2458-140.5465 38.37z"/><path fill="#bdbdbd" d="M475.6593 376.1775l140.5465-38.3701 18.9046 69.2458-140.5465 38.3701z"/><ellipse cx="446.09" cy="366.65" fill="url(#b)" rx="16.07" ry="15" transform="rotate(-15.27 -31.4226 905.4276)"/><circle cx="445.81" cy="365.62" r="13.93" fill="#ff4800" transform="matrix(.96 -.26 .26 .96 -239.31 23.58)"/><ellipse cx="610.41" cy="321.79" fill="url(#h)" rx="16.07" ry="15" transform="rotate(-15.27 132.8887 860.551)"/><circle cx="610.13" cy="320.76" r="13.93" fill="#ff4800" transform="rotate(-15.27 132.6084 859.5262)"/><ellipse cx="779.9" cy="275.52" fill="url(#i)" rx="16.07" ry="15" transform="rotate(-15.27 302.3613 814.278)"/><circle cx="779.62" cy="274.49" r="13.93" fill="#ff4800" transform="rotate(-15.27 302.081 813.2532)"/><ellipse cx="489.26" cy="524.77" fill="url(#j)" rx="16.07" ry="15" transform="rotate(-15.27 11.74 1063.548)"/><circle cx="488.97" cy="523.74" r="13.93" fill="#2196f3" transform="rotate(-15.27 11.4646 1062.4859)"/><ellipse cx="653.58" cy="479.91" fill="url(#k)" rx="16.07" ry="15" transform="rotate(-15.27 176.0513 1018.6714)"/><circle cx="653.29" cy="478.88" r="13.93" fill="#2196f3" transform="rotate(-15.27 175.771 1017.6466)"/><ellipse cx="823.06" cy="433.64" fill="url(#l)" rx="16.07" ry="15" transform="rotate(-15.27 345.5239 972.3983)"/><circle cx="822.78" cy="432.61" r="13.93" fill="#2196f3" transform="rotate(-15.27 345.2436 971.3735)"/><path fill="#f5f5f5" d="M113.28 300.25h764.9v377.49h-764.9z"/><path fill="url(#m)" d="M107.96 299.78H882.5v386.73H107.96z"/><path fill="#fff" d="M113.28 338.35h764.9V677.5h-764.9z"/><circle cx="131.49" cy="318.61" r="9.64" fill="#ff5252"/><circle cx="160.41" cy="318.61" r="9.64" fill="#ff0"/><circle cx="189.34" cy="318.61" r="9.64" fill="#69f0ae"/><path fill="#ff4800" d="M113.28 337.9h201.4v339.6h-201.4z"/><path fill="url(#n)" d="M426.33 550.7c0-28.1-24-50.89-53.56-50.89s-53.57 22.78-53.57 50.89c0 22.06 14.77 40.83 35.43 47.89v-13.11c0-9.48 8.16-17.23 18.14-17.23 10 0 18.14 7.75 18.14 17.23v13.11c20.65-7.06 35.42-25.84 35.42-47.89z" transform="translate(-158.75 -106.74)"/><rect width="6.44" height="21.58" x="210.79" y="453.62" fill="url(#o)" rx="2.86" ry="2.86"/><ellipse cx="214.05" cy="436.96" fill="url(#p)" rx="20.59" ry="19.56"/><path fill="url(#q)" d="M372.77 568.25c-10 0-18.14 7.75-18.14 17.23v13.11a56.43 56.43 0 0036.27 0v-13.11c0-9.48-8.16-17.23-18.13-17.23z" transform="translate(-158.75 -106.74)"/><path fill="url(#r)" d="M352 542.61a18.18 18.18 0 01-2.2-9.84 12.92 12.92 0 014.56-8.92c3-2.43 7.07-3.29 11-3.59s7.91-.12 11.78-.84a24.69 24.69 0 0015.72-10.13 29.89 29.89 0 01-.09 8.61 10.56 10.56 0 01-4.69 7.11c3.13-1.37 2.79 1.85 2.11 3.78 1.55 1.78 5.32 2.07 5.51 4.37a13.8 13.8 0 01-.79 6.8c-.95 2.12.07 5.86-2.35 6" transform="translate(-158.75 -106.74)"/><path fill="#ff4800" d="M264.86 436.46a50.89 50.89 0 10-68.12 47.89v-13.09a17.28 17.28 0 0117.23-17.23 17.28 17.28 0 0117.28 17.23v13.11a50.9 50.9 0 0033.61-47.91z"/><rect width="6.12" height="21.58" x="210.92" y="446.12" fill="#fff" stroke="#fff" stroke-miterlimit="10" rx="2.86" ry="2.86"/><circle cx="214.01" cy="429.46" r="19.56" fill="#fff" stroke="#fff" stroke-miterlimit="10"/><path fill="#fff" stroke="#fff" stroke-miterlimit="10" d="M213.98 454.01h0a17.28 17.28 0 00-17.23 17.25v13.11a51.08 51.08 0 0034.46 0v-13.11a17.28 17.28 0 00-17.23-17.25zM194.25 428.38a19 19 0 01-2.09-9.84 13.16 13.16 0 014.34-8.92c2.85-2.43 6.71-3.29 10.44-3.59s7.51-.12 11.19-.84a23.39 23.39 0 0014.94-10.13 31.45 31.45 0 01-.08 8.61 10.61 10.61 0 01-4.46 7.11c3-1.37 2.65 1.85 2 3.78 1.47 1.78 5 2.07 5.23 4.37a14.47 14.47 0 01-.75 6.8c-.9 2.12.06 5.86-2.23 6"/><path fill="#fff" d="M229.64 410.26s13.65 1.19 3.93 21.45"/><path d="M112.74 507.7h201.4v169.26h-201.4z" opacity=".1"/><path fill="#fff" d="M151.31 544.12h98.56v9.64h-98.56z"/><path fill="#bdbdbd" d="M390.2 395.21h98.56v9.64H390.2z"/><path fill="#e0e0e0" d="M390.2 453.06h352.45v9.64H390.2zM390.2 510.91h352.45v9.64H390.2z"/><path fill="#64ffda" d="M390.2 568.76h98.56v9.64H390.2z"/><path fill="#f5f5f5" d="M516.61 568.76h98.56v9.64h-98.56z"/><path fill="#64ffda" d="M644.1 568.76h98.56v9.64H644.1z"/><path fill="#fff" d="M151.31 566.62h122.13v9.64H151.31z"/></svg>