<svg xmlns="http://www.w3.org/2000/svg" width="1012" height="794" data-name="Layer 1"><path fill="#f2f2f2" d="M329.3103 196.1372l-119.9295 99.4585a54.3135 54.3135 0 11-83.525 69.2679L18.3341 454.0322l172.3556 207.8306 310.9762-257.895zM1012 497.2618c0 122.8394-73.026 165.7304-163.1083 165.7304s-163.1084-42.891-163.1084-165.7304 163.1084-279.1106 163.1084-279.1106S1012 374.4224 1012 497.2618z"/><path fill="#3f3d56" d="M842.95 644.201l1.67-102.805 69.521-127.185-69.259 111.058.751-46.226 47.914-92.017-47.715 79.784v.001l1.35-83.139 51.307-73.257-51.094 60.183.844-152.447-5.304 201.813.436-8.326-52.164-79.845 51.328 95.827-4.861 92.852-.144-2.465-60.136-84.026 59.953 92.733-.607 11.612-.109.174.049.953-12.331 235.573h16.476l1.976-121.678 59.807-92.505-59.658 83.358z"/><ellipse cx="707" cy="777" fill="#3f3d56" rx="228" ry="17"/><path fill="#3f3d56" d="M692 0h36v782h-36z"/><path fill="#ff4800" d="M914.4733 749.1111c0 22.4686-13.3564 30.3138-29.8339 30.3138q-.5725 0-1.1433-.0127a48.6895 48.6895 0 01-2.2667-.1036c-14.8705-1.0525-26.4238-9.3012-26.4238-30.1975 0-21.625 27.6344-48.9124 29.7102-50.9318l.0037-.0037c.08-.0781.12-.1163.12-.1163s29.8338 28.5833 29.8338 51.0518z"/><path fill="#3f3d56" d="M883.5525 775.9876l10.9116-15.2468-10.939 16.921-.029 1.7504a48.6895 48.6895 0 01-2.2667-.1036l1.1761-22.4795-.009-.1745.02-.0327.1108-2.123-10.9662-16.9629 11.0007 15.3705.0255.4508.8888-16.9846-9.3884-17.528 9.503 14.547.9251-35.2125.0037-.12v.1164l-.1545 27.7671 9.3466-11.008-9.3848 13.4-.2472 15.207 8.7268-14.5944-8.7631 16.832-.1382 8.454 12.6694-20.3128-12.7166 23.263z"/><path fill="#2f2e41" d="M649.2268 732.2901l-6.3818-4.7412s-4.2244 23.5966.4894 27.132 22.3908 9.4277 22.3908 16.4985 40.0677 16.4984 41.2462 5.8923-3.5354-16.4985-3.5354-16.4985-18.8554-18.8553-21.2123-22.3907-8.2493-10.6062-8.2493-10.6062z"/><path fill="#2f2e41" d="M743.5036 438.8533s-.1767 1.037-.483 2.9344c-.283 1.6852-.6718 4.0657-1.1432 7-4.9497 30.204-19.3858 119.119-18.4076 122.0533 1.1785 3.5354 9.4277 16.4984 0 20.0338-.9074.3417-1.8855 1.4495-2.9344 3.1936a68.4943 68.4943 0 00-4.9848 11.761c-5.6213 16.31-11.6316 42.4129-15.108 60.4904-1.5202 7.943-2.5571 14.3302-2.8635 17.677a9.6118 9.6118 0 00-.0354 2.3334c1.1784 4.7138-7.0708 21.2123-10.6062 25.9261s-9.4277 9.4277-8.2492 14.1415-29.4615 17.677-32.997 9.4277-3.5353-12.963-4.7138-15.32-2.3569-18.8553 3.5354-21.2123 2.357-43.603 8.2492-51.8522c1.968-2.7459 4.9731-12.044 8.1197-23.2275 1.2373-4.3839 2.4865-9.0506 3.7121-13.729 4.9731-19.1736 9.3805-38.465 9.3805-38.465l-1.1784-137.88 64.8154-8.2492 1.6615 3.665 3.3115 7.271zM747.039 665.1179s9.4277-9.4277 14.1415 0 9.4277 45.96 17.677 54.2092 18.8553 49.4953 7.0707 51.8523-24.7477-3.5354-25.9261-10.6062-25.9261-43.603-25.9261-47.1384 16.4984-16.4985 16.4984-16.4985z"/><path fill="#2f2e41" d="M602.0883 374.038s15.32 137.88 18.8554 150.843 22.3907 62.4584 28.283 70.7077 43.6031 75.4215 48.317 78.9568 14.1415 12.9631 14.1415 12.9631 17.677 17.677 20.0338 21.2123 22.3908-7.0707 23.5692-14.1415-1.1784-18.8554-2.3569-23.5692 2.357-11.7846-1.1784-15.32-21.2123-21.2123-21.2123-29.4616-30.64-56.566-42.4246-67.1722-9.4277-28.2831-9.4277-28.2831v-71.8861l64.8153-20.0339s-3.5353-56.566-11.7846-56.566-116.6676-18.8555-129.6307-8.2493z"/><circle cx="697.544" cy="138.346" r="38.889" fill="#9f616a"/><path fill="#9f616a" d="M684.5806 168.9858s-4.7138 17.6769-10.6062 22.3907 15.32 24.7477 15.32 24.7477l40.0677 2.357 7.0708-22.3908s-12.963-25.9262-9.4277-42.4246-42.4246 15.32-42.4246 15.32z"/><path fill="#3f3d56" d="M668.0821 189.0196s10.6062 1.1785 12.9631 4.7138 18.8554 14.1416 31.8185 11.7847 21.2123-5.8924 23.5692-4.7139 7.0707 25.9262 7.0707 25.9262l-12.963 37.7107 2.3569 103.7046 3.5354 28.283s7.0707-9.4276-21.2123-3.5353-64.8154-4.7139-76.6-5.8923-31.8185-4.7139-32.997-11.7847 3.5354-32.9969 3.5354-32.9969l18.8554-78.9569 11.7846-42.4246z"/><path fill="#d0cde1" d="M679.229 183.7007s-9.9684-5.2873-13.5038-.5734-48.3169 11.7846-48.3169 15.32-9.4277 98.9907-7.0708 107.24-4.7138 17.677-4.7138 17.677l-8.2492 35.3537s-22.3908 67.1723-12.9631 69.5292 17.677 0 21.2123 0 2.357-44.7815 11.7846-56.5661 22.3908-41.2462 24.7477-47.1385 31.8184-87.206 30.64-96.6338 6.433-44.208 6.433-44.208zM728.1836 189.0196s9.4277 0 10.6062 2.357 12.963 17.6768 17.677 21.2122 21.2122 18.8554 21.2122 22.3908-34.1754 29.4615-34.1754 29.4615-14.1415 69.5292-7.0707 93.0984 17.6769 80.1354 12.963 83.6708-15.32 4.7138-15.32 0-7.0707-55.3877-12.963-65.9939-23.5693-77.7784-16.4985-96.6338 23.5692-89.563 23.5692-89.563z"/><path fill="#9f616a" d="M572.6268 305.6872s-1.1785 36.5323 11.7846 55.3877 21.2123 40.0677 21.2123 40.0677 21.2123-5.8923 24.7477-12.963 25.9261-1.1786 25.9261-3.5355-27.1046-14.1415-29.4615-16.4984-10.6061-2.357-15.32-7.0708-5.8923-15.32-5.8923-15.32l-4.7138-30.64z"/><path fill="#2f2e41" d="M670.7588 114.3675c-2.9918-.2718-6.0773-.5708-8.7215-1.9968-5.9245-3.195-7.4956-12.2938-2.9855-17.2906a22.344 22.344 0 014.1432-3.3315l8.9578-6.0971c3.9618-2.6967 8.0174-5.4375 12.6382-6.7087 4.1794-1.1498 8.5936-1.0317 12.92-.7628 8.3986.522 16.8492 1.6003 24.7486 4.5s15.2682 7.751 20.0525 14.6734c7.5845 10.9742 7.6888 25.7748 3.5114 38.444s-12.1123 23.7013-19.931 34.51l-4.057-19.7949c-.3613-1.763-.8286-3.6954-2.295-4.7389-3.6445-2.5934-8.1027 2.7315-12.5756 2.697-2.8741-.0222-5.287-2.3862-6.3763-5.046s-1.1609-5.6052-1.4129-8.4683c-.5337-6.0642-2.6533-14.502-8.3962-17.8465-5.3514-3.1165-14.2055-2.196-20.2207-2.7423z"/><path d="M672.9404 439.8045s3.9802 115.1272 6.3371 118.6626 0-119.0245 0-119.0245z" opacity=".1"/><path fill="#d0cde1" d="M626.836 198.4473h-9.4277s-40.0677 54.2092-35.3538 57.7446 0 12.963 0 12.963l-9.4277 17.677s-11.7846 10.6061-8.2492 12.963 8.2492 11.7846 8.2492 11.7846 23.5692-3.5353 30.64 10.6062l15.2844-19.2956z"/><path fill="#9f616a" d="M734.076 299.795s-25.9261 1.1784-55.3877-17.677l-29.4615-12.963s-25.9262-40.0677-28.2831-32.997 3.5354 21.2124 3.5354 21.2124S588.9242 273.825 588 276s19.9806-3.3097 19.9806-3.3097-3.5354 22.3908 16.4985 23.5693 25.9261-3.5354 25.9261-3.5354 84.8492 70.7076 98.9908 48.3169-15.32-41.2462-15.32-41.2462z"/><path fill="#d0cde1" d="M764.716 230.2657l12.963 4.7139v35.3538l4.7139 7.0708s-1.1785 14.1415-4.7139 17.6769-10.6061 2.357-8.2492 10.6061a44.667 44.667 0 011.1785 16.4985s-21.2123 27.1046-22.3908 23.5692-17.677-47.1384-20.0338-47.1384 23.5692-68.3508 23.5692-68.3508z"/><path fill="#2f2e41" d="M609.7483 408.8026s-12.185-11.7846-6.0925-12.3739 27.3048-12.3738 30.8402-6.4815-24.7477 18.8554-24.7477 18.8554z"/><path fill="#3f3d56" d="M423.7167 755A226.9222 226.9222 0 00456 638c0-125.921-102.0791-228-228-228S0 512.079 0 638a226.9222 226.9222 0 0032.2833 117z"/><circle cx="228" cy="623" r="22" fill="#ff4800"/><circle cx="53" cy="659" r="11" fill="#ff4800"/><circle cx="59.454" cy="563.726" r="11" fill="#ff4800"/><circle cx="114.056" cy="485.385" r="11" fill="#ff4800"/><circle cx="201.208" cy="446.356" r="11" fill="#ff4800"/><circle cx="296.013" cy="457.788" r="11" fill="#ff4800"/><circle cx="371.39" cy="516.415" r="11" fill="#ff4800"/><circle cx="405.804" cy="605.49" r="11" fill="#ff4800"/><circle cx="389.427" cy="699.567" r="11" fill="#ff4800"/><path fill="none" stroke="#ff4800" stroke-miterlimit="10" stroke-width="4" d="M228 623l113-86"/><circle cx="332.542" cy="198.352" r="14.756" fill="none" stroke="#3f3d56" stroke-miterlimit="10" stroke-width="2"/><circle cx="416.542" cy="370.352" r="14.756" fill="#3f3d56"/><circle cx="168.223" cy="331.166" r="42.777" fill="#f2f2f2"/></svg>